<svg width="96" height="35" viewBox="0 0 96 35" fill="none" xmlns="http://www.w3.org/2000/svg">
<path d="M35.7928 34.4842L30.8819 25.6415H29.5028V34.4842H23.751V11.0593H33.4046C35.2659 11.0593 36.8468 11.3818 38.1474 12.027C39.4704 12.6721 40.4571 13.5619 41.1074 14.6965C41.7577 15.8088 42.0829 17.0545 42.0829 18.4338C42.0829 19.991 41.6344 21.3814 40.7374 22.6049C39.8628 23.8284 38.5622 24.696 36.8356 25.2077L42.2847 34.4842H35.7928ZM29.5028 21.6038H33.0683C34.1222 21.6038 34.9071 21.348 35.4228 20.8364C35.961 20.3247 36.2301 19.6017 36.2301 18.6674C36.2301 17.7775 35.961 17.0768 35.4228 16.5651C34.9071 16.0535 34.1222 15.7977 33.0683 15.7977H29.5028V21.6038ZM56.8609 34.7178C54.6409 34.7178 52.6003 34.2062 50.7391 33.1828C48.9003 32.1595 47.4315 30.7358 46.3326 28.9116C45.2562 27.0652 44.718 24.9963 44.718 22.705C44.718 20.4137 45.2562 18.3559 46.3326 16.5318C47.4315 14.7076 48.9003 13.2839 50.7391 12.2606C52.6003 11.2372 54.6409 10.7256 56.8609 10.7256C59.0809 10.7256 61.1103 11.2372 62.9491 12.2606C64.8104 13.2839 66.2679 14.7076 67.3219 16.5318C68.3983 18.3559 68.9364 20.4137 68.9364 22.705C68.9364 24.9963 68.3983 27.0652 67.3219 28.9116C66.2455 30.7358 64.7879 32.1595 62.9491 33.1828C61.1103 34.2062 59.0809 34.7178 56.8609 34.7178ZM56.8609 29.5123C58.7446 29.5123 60.247 28.8894 61.3682 27.6436C62.5119 26.3978 63.0837 24.7516 63.0837 22.705C63.0837 20.6361 62.5119 18.9899 61.3682 17.7664C60.247 16.5206 58.7446 15.8978 56.8609 15.8978C54.9549 15.8978 53.43 16.5095 52.2864 17.7331C51.1652 18.9566 50.6046 20.6139 50.6046 22.705C50.6046 24.7739 51.1652 26.4312 52.2864 27.677C53.43 28.9005 54.9549 29.5123 56.8609 29.5123ZM86.5998 34.4842L81.7898 27.3099L77.5516 34.4842H71.0261L78.5943 22.5715L70.8579 11.0593H77.5516L82.2943 18.1335L86.4652 11.0593H92.9907L85.4898 22.8719L93.2934 34.4842H86.5998Z" fill="white"/>
<path fill-rule="evenodd" clip-rule="evenodd" d="M94.0657 2.58658H22.0275H21.9527H20.8596V2.59122H20.084H2.86869H1.93434V3.51813V32.5722V33.4991H2.86869H20.084H21.0184V32.5722V28.3942V27.4673H20.084H10.4579H9.52356V26.5403V21.6138V20.6869H10.4579H18.7526H19.6869V19.76V15.802V14.8751H18.7526H10.4579H9.52356V13.9482V9.55002V8.6231H10.4579H20.084H20.8596H20.9062H21.9527H22.0275H94.0657V2.58658ZM20.9062 1.65967V1.6643H1.93434H1V2.59122V33.4991V34.4261H1.93434H21.0184H21.9527V33.4991V27.4673V26.5403H21.0184H10.4579V21.6138H19.6869H20.6213V20.6869V14.8751V13.9482H19.6869H10.4579V9.55002H20.9062H21.0184H21.8406H21.9527H94.0657H95V8.6231V2.58658V1.65967H94.0657H21.8406H20.9062Z" fill="white" stroke="white" stroke-width="0.5"/>
</svg>
