<svg width="2304" height="852" viewBox="0 0 2304 852" fill="none" xmlns="http://www.w3.org/2000/svg">
<path d="M852.965 845.623L732.71 628.782H698.94V845.623H558.094V271.198H794.485C840.061 271.198 878.773 279.108 910.621 294.928C943.018 310.748 967.179 332.568 983.103 360.389C999.027 387.665 1006.99 418.214 1006.99 452.035C1006.99 490.221 996.007 524.316 974.043 554.319C952.628 584.322 920.779 605.597 878.498 618.144L1011.93 845.623H852.965ZM698.94 529.771H786.248C812.056 529.771 831.275 523.498 843.904 510.951C857.083 498.404 863.672 480.675 863.672 457.763C863.672 435.943 857.083 418.759 843.904 406.212C831.275 393.666 812.056 387.392 786.248 387.392H698.94V529.771ZM1368.86 851.351C1314.5 851.351 1264.53 838.804 1218.96 813.711C1173.93 788.617 1137.96 753.704 1111.05 708.972C1084.7 663.695 1071.52 612.962 1071.52 556.774C1071.52 500.586 1084.7 450.126 1111.05 405.394C1137.96 360.662 1173.93 325.749 1218.96 300.656C1264.53 275.562 1314.5 263.015 1368.86 263.015C1423.22 263.015 1472.92 275.562 1517.95 300.656C1563.52 325.749 1599.21 360.662 1625.02 405.394C1651.38 450.126 1664.56 500.586 1664.56 556.774C1664.56 612.962 1651.38 663.695 1625.02 708.972C1598.66 753.704 1562.97 788.617 1517.95 813.711C1472.92 838.804 1423.22 851.351 1368.86 851.351ZM1368.86 723.701C1414.99 723.701 1451.78 708.427 1479.23 677.878C1507.24 647.329 1521.24 606.961 1521.24 556.774C1521.24 506.041 1507.24 465.673 1479.23 435.67C1451.78 405.121 1414.99 389.847 1368.86 389.847C1322.19 389.847 1284.85 404.849 1256.84 434.852C1229.39 464.855 1215.66 505.496 1215.66 556.774C1215.66 607.507 1229.39 648.147 1256.84 678.696C1284.85 708.699 1322.19 723.701 1368.86 723.701ZM2097.08 845.623L1979.3 669.695L1875.52 845.623H1715.73L1901.05 553.501L1711.61 271.198H1875.52L1991.65 444.671L2093.79 271.198H2253.58L2069.9 560.865L2260.99 845.623H2097.08Z" fill="black"/>
<path fill-rule="evenodd" clip-rule="evenodd" d="M2279.91 63.4324H515.897H514.064H487.298V63.546H468.305H46.7511H23.8716V86.2757V798.739V821.468H46.7511H468.305H491.185V798.739V696.284V673.555H468.305H232.589H209.71V650.825V530.017V507.287H232.589H435.702H458.582V484.557V387.501V364.772H435.702H232.589H209.71V342.042V234.189V211.46H232.589H468.305H487.298H488.439H514.064H515.897H2279.91V63.4324ZM488.439 40.7026V40.8163H23.8716H0.992188V63.546V821.468V844.198H23.8716H491.185H514.064V821.468V673.555V650.825H491.185H232.589V530.017H458.582H481.461V507.287V364.772V342.042H458.582H232.589V234.189H488.439H491.185H511.319H514.064H2279.91H2302.79V211.46V63.4324V40.7026H2279.91H511.319H488.439Z" fill="black" stroke="black" stroke-width="0.5"/>
</svg>
